# Blender 5.1.0
# www.blender.org
mtllib door_knob.mtl
o Object_4
v 0.358022 -1.009025 -1.477280
v 0.358022 -0.878767 -1.614598
v 0.397799 -0.866272 -1.593109
v 0.396987 -0.990273 -1.466656
v 0.396987 -0.990273 -1.466656
v 0.397799 -0.866272 -1.593109
v 0.393959 -0.843754 -1.554739
v 0.395198 -0.956408 -1.447529
v 0.395198 -0.956408 -1.447529
v 0.393959 -0.843754 -1.554739
v 0.358022 -0.834509 -1.539210
v 0.358022 -0.940273 -1.438437
v 0.358022 -0.940273 -1.438437
v 0.358022 -0.834509 -1.539210
v 0.322086 -0.843754 -1.554739
v 0.320847 -0.956408 -1.447529
v 0.320847 -0.956408 -1.447529
v 0.322086 -0.843754 -1.554739
v 0.318246 -0.866272 -1.593109
v 0.319058 -0.990273 -1.466656
v 0.319058 -0.990273 -1.466656
v 0.318246 -0.866272 -1.593109
v 0.358022 -0.878767 -1.614598
v 0.358022 -1.009025 -1.477280
v 0.358022 -0.692137 -1.659625
v 0.358022 -0.505507 -1.614598
v 0.397799 -0.518001 -1.593109
v 0.396934 -0.692137 -1.638529
v 0.396934 -0.692137 -1.638529
v 0.397799 -0.518001 -1.593109
v 0.393959 -0.540520 -1.554739
v 0.395330 -0.692137 -1.600554
v 0.395330 -0.692137 -1.600554
v 0.393959 -0.540520 -1.554739
v 0.358022 -0.549765 -1.539210
v 0.358022 -0.692137 -1.582163
v 0.358022 -0.692137 -1.582163
v 0.358022 -0.549765 -1.539210
v 0.322086 -0.540520 -1.554739
v 0.320715 -0.692137 -1.600554
v 0.320715 -0.692137 -1.600554
v 0.322086 -0.540520 -1.554739
v 0.318246 -0.518001 -1.593109
v 0.319110 -0.692137 -1.638529
v 0.319110 -0.692137 -1.638529
v 0.318246 -0.518001 -1.593109
v 0.358022 -0.505507 -1.614598
v 0.358022 -0.692137 -1.659625
v 0.358022 -0.374416 -1.490223
v 0.358022 -0.319364 -1.291906
v 0.397741 -0.344140 -1.291906
v 0.396987 -0.393167 -1.479600
v 0.396987 -0.393167 -1.479600
v 0.397741 -0.344140 -1.291906
v 0.394015 -0.388580 -1.291906
v 0.395198 -0.427033 -1.460472
v 0.395198 -0.427033 -1.460472
v 0.394015 -0.388580 -1.291906
v 0.358022 -0.406778 -1.291906
v 0.358022 -0.443167 -1.451380
v 0.358022 -0.443167 -1.451380
v 0.358022 -0.406778 -1.291906
v 0.322030 -0.388580 -1.291906
v 0.320847 -0.427033 -1.460472
v 0.320847 -0.427033 -1.460472
v 0.322030 -0.388580 -1.291906
v 0.318303 -0.344140 -1.291906
v 0.319058 -0.393167 -1.479600
v 0.319058 -0.393167 -1.479600
v 0.318303 -0.344140 -1.291906
v 0.358022 -0.319364 -1.291906
v 0.358022 -0.374416 -1.490223
v 0.358022 -0.365070 -1.105396
v 0.358022 -0.505507 -0.969214
v 0.397799 -0.518001 -0.990704
v 0.396987 -0.383821 -1.116019
v 0.396987 -0.383821 -1.116019
v 0.397799 -0.518001 -0.990704
v 0.393959 -0.540520 -1.029073
v 0.395198 -0.417687 -1.135146
v 0.395198 -0.417687 -1.135146
v 0.393959 -0.540520 -1.029073
v 0.358022 -0.549765 -1.044602
v 0.358022 -0.433821 -1.144239
v 0.358022 -0.433821 -1.144239
v 0.358022 -0.549765 -1.044602
v 0.322086 -0.540520 -1.029073
v 0.320847 -0.417687 -1.135146
v 0.320847 -0.417687 -1.135146
v 0.322086 -0.540520 -1.029073
v 0.318246 -0.518001 -0.990704
v 0.319058 -0.383821 -1.116019
v 0.319058 -0.383821 -1.116019
v 0.318246 -0.518001 -0.990704
v 0.358022 -0.505507 -0.969214
v 0.358022 -0.365070 -1.105396
v 0.358022 -0.692137 -0.924091
v 0.358022 -0.878767 -0.969214
v 0.397799 -0.866272 -0.990704
v 0.396934 -0.692137 -0.945186
v 0.396934 -0.692137 -0.945186
v 0.397799 -0.866272 -0.990704
v 0.393959 -0.843754 -1.029073
v 0.395330 -0.692137 -0.983162
v 0.395330 -0.692137 -0.983162
v 0.393959 -0.843754 -1.029073
v 0.358022 -0.834509 -1.044602
v 0.358022 -0.692137 -1.001552
v 0.358022 -0.692137 -1.001552
v 0.358022 -0.834509 -1.044602
v 0.322086 -0.843754 -1.029073
v 0.320715 -0.692137 -0.983162
v 0.320715 -0.692137 -0.983162
v 0.322086 -0.843754 -1.029073
v 0.318246 -0.866272 -0.990704
v 0.319110 -0.692137 -0.945186
v 0.319110 -0.692137 -0.945186
v 0.318246 -0.866272 -0.990704
v 0.358022 -0.878767 -0.969214
v 0.358022 -0.692137 -0.924091
v 0.358022 -1.009294 -1.104472
v 0.358022 -1.064910 -1.291906
v 0.397742 -1.040134 -1.291906
v 0.396987 -0.990543 -1.115095
v 0.396987 -0.990543 -1.115095
v 0.397742 -1.040134 -1.291906
v 0.394015 -0.995694 -1.291906
v 0.395198 -0.956677 -1.134223
v 0.395198 -0.956677 -1.134223
v 0.394015 -0.995694 -1.291906
v 0.358022 -0.977496 -1.291906
v 0.358022 -0.940543 -1.143315
v 0.358022 -0.940543 -1.143315
v 0.358022 -0.977496 -1.291906
v 0.322030 -0.995694 -1.291906
v 0.320847 -0.956677 -1.134223
v 0.320847 -0.956677 -1.134223
v 0.322030 -0.995694 -1.291906
v 0.318303 -1.040134 -1.291906
v 0.319058 -0.990543 -1.115095
v 0.319058 -0.990543 -1.115095
v 0.318303 -1.040134 -1.291906
v 0.358022 -1.064910 -1.291906
v 0.358022 -1.009294 -1.104472
v 0.318246 -0.518001 -1.593109
v 0.319058 -0.393167 -1.479600
v 0.358022 -0.374416 -1.490223
v 0.358022 -0.505507 -1.614598
v 0.322086 -0.540520 -1.554739
v 0.320847 -0.427033 -1.460472
v 0.319058 -0.393167 -1.479600
v 0.318246 -0.518001 -1.593109
v 0.358022 -0.549765 -1.539210
v 0.358022 -0.443167 -1.451380
v 0.320847 -0.427033 -1.460472
v 0.322086 -0.540520 -1.554739
v 0.393959 -0.540520 -1.554739
v 0.395198 -0.427033 -1.460472
v 0.358022 -0.443167 -1.451380
v 0.358022 -0.549765 -1.539210
v 0.397799 -0.518001 -1.593109
v 0.396987 -0.393167 -1.479600
v 0.395198 -0.427033 -1.460472
v 0.393959 -0.540520 -1.554739
v 0.358022 -0.505507 -1.614598
v 0.358022 -0.374416 -1.490223
v 0.396987 -0.393167 -1.479600
v 0.397799 -0.518001 -1.593109
v 0.318246 -0.866272 -1.593109
v 0.319110 -0.692137 -1.638529
v 0.358022 -0.692137 -1.659625
v 0.358022 -0.878767 -1.614598
v 0.322086 -0.843754 -1.554739
v 0.320715 -0.692137 -1.600554
v 0.319110 -0.692137 -1.638529
v 0.318246 -0.866272 -1.593109
v 0.358022 -0.834509 -1.539210
v 0.358022 -0.692137 -1.582163
v 0.320715 -0.692137 -1.600554
v 0.322086 -0.843754 -1.554739
v 0.393959 -0.843754 -1.554739
v 0.395330 -0.692137 -1.600554
v 0.358022 -0.692137 -1.582163
v 0.358022 -0.834509 -1.539210
v 0.397799 -0.866272 -1.593109
v 0.396934 -0.692137 -1.638529
v 0.395330 -0.692137 -1.600554
v 0.393959 -0.843754 -1.554739
v 0.358022 -0.878767 -1.614598
v 0.358022 -0.692137 -1.659625
v 0.396934 -0.692137 -1.638529
v 0.397799 -0.866272 -1.593109
v 0.318246 -0.866272 -0.990704
v 0.319058 -0.990543 -1.115095
v 0.358022 -1.009294 -1.104472
v 0.358022 -0.878767 -0.969214
v 0.322086 -0.843754 -1.029073
v 0.320847 -0.956677 -1.134223
v 0.319058 -0.990543 -1.115095
v 0.318246 -0.866272 -0.990704
v 0.358022 -0.834509 -1.044602
v 0.358022 -0.940543 -1.143315
v 0.320847 -0.956677 -1.134223
v 0.322086 -0.843754 -1.029073
v 0.393959 -0.843754 -1.029073
v 0.395198 -0.956677 -1.134223
v 0.358022 -0.940543 -1.143315
v 0.358022 -0.834509 -1.044602
v 0.397799 -0.866272 -0.990704
v 0.396987 -0.990543 -1.115095
v 0.395198 -0.956677 -1.134223
v 0.393959 -0.843754 -1.029073
v 0.358022 -0.878767 -0.969214
v 0.358022 -1.009294 -1.104472
v 0.396987 -0.990543 -1.115095
v 0.397799 -0.866272 -0.990704
v 0.318246 -0.518001 -0.990704
v 0.319110 -0.692137 -0.945186
v 0.358022 -0.692137 -0.924091
v 0.358022 -0.505507 -0.969214
v 0.322086 -0.540520 -1.029073
v 0.320715 -0.692137 -0.983162
v 0.319110 -0.692137 -0.945186
v 0.318246 -0.518001 -0.990704
v 0.358022 -0.549765 -1.044602
v 0.358022 -0.692137 -1.001552
v 0.320715 -0.692137 -0.983162
v 0.322086 -0.540520 -1.029073
v 0.393959 -0.540520 -1.029073
v 0.395330 -0.692137 -0.983162
v 0.358022 -0.692137 -1.001552
v 0.358022 -0.549765 -1.044602
v 0.397799 -0.518001 -0.990704
v 0.396934 -0.692137 -0.945186
v 0.395330 -0.692137 -0.983162
v 0.393959 -0.540520 -1.029073
v 0.358022 -0.505507 -0.969214
v 0.358022 -0.692137 -0.924091
v 0.396934 -0.692137 -0.945186
v 0.397799 -0.518001 -0.990704
v 0.318303 -0.344140 -1.291906
v 0.319058 -0.383821 -1.116019
v 0.358022 -0.365070 -1.105396
v 0.358022 -0.319364 -1.291906
v 0.322030 -0.388580 -1.291906
v 0.320847 -0.417687 -1.135146
v 0.319058 -0.383821 -1.116019
v 0.318303 -0.344140 -1.291906
v 0.358022 -0.406778 -1.291906
v 0.358022 -0.433821 -1.144239
v 0.320847 -0.417687 -1.135146
v 0.322030 -0.388580 -1.291906
v 0.394015 -0.388580 -1.291906
v 0.395198 -0.417687 -1.135146
v 0.358022 -0.433821 -1.144239
v 0.358022 -0.406778 -1.291906
v 0.397741 -0.344140 -1.291906
v 0.396987 -0.383821 -1.116019
v 0.395198 -0.417687 -1.135146
v 0.394015 -0.388580 -1.291906
v 0.358022 -0.319364 -1.291906
v 0.358022 -0.365070 -1.105396
v 0.396987 -0.383821 -1.116019
v 0.397741 -0.344140 -1.291906
v 0.318303 -1.040134 -1.291906
v 0.319058 -0.990273 -1.466656
v 0.358022 -1.009025 -1.477280
v 0.358022 -1.064910 -1.291906
v 0.322030 -0.995694 -1.291906
v 0.320847 -0.956408 -1.447529
v 0.319058 -0.990273 -1.466656
v 0.318303 -1.040134 -1.291906
v 0.358022 -0.977496 -1.291906
v 0.358022 -0.940273 -1.438437
v 0.320847 -0.956408 -1.447529
v 0.322030 -0.995694 -1.291906
v 0.394015 -0.995694 -1.291906
v 0.395198 -0.956408 -1.447529
v 0.358022 -0.940273 -1.438437
v 0.358022 -0.977496 -1.291906
v 0.397742 -1.040134 -1.291906
v 0.396987 -0.990273 -1.466656
v 0.395198 -0.956408 -1.447529
v 0.394015 -0.995694 -1.291906
v 0.358022 -1.064910 -1.291906
v 0.358022 -1.009025 -1.477280
v 0.396987 -0.990273 -1.466656
v 0.397742 -1.040134 -1.291906
v 0.250677 -0.559388 -1.146446
v 0.250677 -0.287061 -1.146446
v 0.250677 -0.287061 -1.439408
v 0.250677 -0.559388 -1.439408
v 0.308563 -0.559388 -1.146446
v 0.308563 -0.287061 -1.146446
v 0.250677 -0.287061 -1.146446
v 0.250677 -0.559388 -1.146446
v 0.308563 -0.287061 -1.439408
v 0.250677 -0.287061 -1.439408
v 0.250677 -0.287061 -1.146446
v 0.308563 -0.287061 -1.146446
v 0.318303 -0.554111 -1.434131
v 0.318303 -0.292338 -1.434131
v 0.318303 -0.292338 -1.151723
v 0.318303 -0.554111 -1.151723
v 0.250677 -0.559388 -1.439408
v 0.250677 -0.287061 -1.439408
v 0.308563 -0.287061 -1.439408
v 0.308563 -0.559388 -1.439408
v 0.318303 -0.292338 -1.434131
v 0.318303 -0.554111 -1.434131
v 0.308563 -0.559388 -1.439408
v 0.308563 -0.287061 -1.439408
v 0.308563 -0.559388 -1.146446
v 0.308563 -0.559388 -1.439408
v 0.318303 -0.554111 -1.434131
v 0.318303 -0.554111 -1.151723
v 0.308563 -0.287061 -1.439408
v 0.308563 -0.287061 -1.146446
v 0.318303 -0.292338 -1.151723
v 0.318303 -0.292338 -1.434131
v 0.308563 -0.287061 -1.146446
v 0.308563 -0.559388 -1.146446
v 0.318303 -0.554111 -1.151723
v 0.318303 -0.292338 -1.151723
v 0.250677 -0.559388 -1.439408
v 0.308563 -0.559388 -1.439408
v 0.308563 -0.559388 -1.146446
v 0.250677 -0.559388 -1.146446
vn 0.4944 -0.6266 -0.6025
vn 0.9976 0.0499 0.0487
vn 0.4351 0.6222 0.6508
vn 0.4352 0.6222 0.6508
vn -0.4351 0.6222 0.6508
vn -0.4352 0.6222 0.6508
vn -0.9976 0.0499 0.0487
vn -0.4944 -0.6266 -0.6025
vn -0.4943 -0.6266 -0.6025
vn 0.4909 0.2108 -0.8453
vn 0.4910 0.2107 -0.8453
vn 0.9977 -0.0170 0.0661
vn 0.4326 -0.2587 0.8636
vn 0.4326 -0.2588 0.8636
vn 0.4326 -0.2588 0.8637
vn -0.4326 -0.2588 0.8636
vn -0.9977 -0.0170 0.0662
vn -0.9977 -0.0170 0.0661
vn -0.4909 0.2108 -0.8453
vn -0.4910 0.2108 -0.8453
vn -0.4909 0.2107 -0.8453
vn 0.4947 0.8388 -0.2271
vn 0.4947 0.8389 -0.2271
vn 0.9977 -0.0660 0.0174
vn 0.4365 -0.8768 0.2016
vn -0.4364 -0.8769 0.2016
vn -0.4365 -0.8768 0.2016
vn -0.9977 -0.0660 0.0174
vn -0.4947 0.8389 -0.2272
vn -0.4947 0.8388 -0.2271
vn 0.4946 0.6001 0.6287
vn 0.4945 0.6001 0.6287
vn 0.9976 -0.0476 -0.0510
vn 0.4340 -0.5893 -0.6814
vn 0.4341 -0.5893 -0.6814
vn -0.4340 -0.5893 -0.6814
vn -0.9976 -0.0476 -0.0510
vn -0.4946 0.6001 0.6287
vn -0.4945 0.6001 0.6287
vn 0.4909 -0.2112 0.8452
vn 0.4910 -0.2112 0.8452
vn 0.9977 0.0170 -0.0661
vn 0.4326 0.2593 -0.8635
vn -0.4326 0.2593 -0.8635
vn -0.9977 0.0170 -0.0661
vn -0.9977 0.0170 -0.0662
vn -0.4910 -0.2112 0.8452
vn -0.4909 -0.2112 0.8452
vn 0.4945 -0.8348 0.2421
vn 0.9977 0.0657 -0.0187
vn 0.4366 0.8728 -0.2182
vn 0.4367 0.8728 -0.2182
vn -0.4367 0.8728 -0.2182
vn -0.4366 0.8728 -0.2182
vn -0.9977 0.0657 -0.0187
vn -0.4945 -0.8348 0.2421
vn -0.4945 0.5926 -0.6359
vn -0.9976 -0.0469 0.0517
vn -0.4333 -0.5760 0.6932
vn -0.4334 -0.5760 0.6932
vn 0.4334 -0.5760 0.6932
vn 0.4333 -0.5760 0.6932
vn 0.9976 -0.0469 0.0517
vn 0.4945 0.5926 -0.6359
vn -0.4909 -0.2108 -0.8453
vn -0.4910 -0.2107 -0.8453
vn -0.9977 0.0170 0.0661
vn -0.4326 0.2588 0.8636
vn -0.4326 0.2588 0.8637
vn -0.4326 0.2587 0.8636
vn 0.4326 0.2588 0.8636
vn 0.4326 0.2588 0.8637
vn 0.9977 0.0170 0.0661
vn 0.9977 0.0170 0.0662
vn 0.4910 -0.2108 -0.8453
vn 0.4909 -0.2107 -0.8453
vn 0.4909 -0.2108 -0.8453
vn -0.4945 -0.6212 0.6080
vn -0.4944 -0.6212 0.6080
vn -0.9976 0.0494 -0.0492
vn -0.4350 0.6149 -0.6578
vn 0.4350 0.6149 -0.6578
vn 0.9976 0.0494 -0.0492
vn 0.4945 -0.6211 0.6080
vn 0.4945 -0.6212 0.6080
vn 0.4944 -0.6212 0.6080
vn -0.4910 0.2112 0.8452
vn -0.4909 0.2112 0.8452
vn -0.9977 -0.0170 -0.0661
vn -0.9977 -0.0170 -0.0662
vn -0.4326 -0.2593 -0.8635
vn 0.4326 -0.2593 -0.8635
vn 0.9977 -0.0170 -0.0662
vn 0.9977 -0.0170 -0.0661
vn 0.4910 0.2112 0.8452
vn 0.4909 0.2112 0.8452
vn -0.4948 0.8456 0.2003
vn -0.9977 -0.0666 -0.0151
vn -0.4357 -0.8849 -0.1649
vn 0.4357 -0.8849 -0.1649
vn 0.9977 -0.0666 -0.0151
vn 0.9977 -0.0666 -0.0150
vn 0.4948 0.8456 0.2003
vn -0.4944 -0.8337 -0.2459
vn -0.4944 -0.8337 -0.2458
vn -0.9977 0.0656 0.0190
vn -0.4366 0.8717 0.2224
vn -0.4367 0.8717 0.2224
vn 0.4367 0.8717 0.2224
vn 0.4366 0.8717 0.2225
vn 0.9977 0.0656 0.0190
vn 0.4944 -0.8337 -0.2459
vn -1.0000 -0.0000 -0.0000
vn -0.0000 -0.0000 1.0000
vn -0.0000 1.0000 -0.0000
vn 1.0000 -0.0000 -0.0000
vn -0.0000 -0.0000 -1.0000
vn 0.4763 -0.0000 -0.8793
vn 0.4764 -0.0000 -0.8792
vn 0.4764 -0.8793 -0.0000
vn 0.4764 0.8793 -0.0000
vn 0.4763 -0.0000 0.8793
vn 0.4764 -0.0000 0.8792
vn -0.0000 -1.0000 -0.0000
vt 0.677852 0.511971
vt 0.567647 0.575646
vt 0.589983 0.596781
vt 0.686473 0.541741
vt 0.610642 0.616591
vt 0.692836 0.564498
vt 0.629177 0.634462
vt 0.699680 0.588307
vt 0.199680 0.906358
vt 0.129177 0.860202
vt 0.110642 0.878074
vt 0.192836 0.930166
vt 0.089983 0.897884
vt 0.186473 0.952924
vt 0.067648 0.919019
vt 0.177853 0.982694
vt 0.510596 0.690096
vt 0.512572 0.817445
vt 0.542342 0.807694
vt 0.540173 0.696888
vt 0.568339 0.799314
vt 0.562320 0.701972
vt 0.592687 0.791727
vt 0.586176 0.707466
vt 0.086176 0.787199
vt 0.092687 0.702937
vt 0.068339 0.695350
vt 0.062320 0.792692
vt 0.042342 0.686971
vt 0.040173 0.797777
vt 0.012572 0.677219
vt 0.010596 0.804569
vt 0.575614 0.919109
vt 0.692343 0.988899
vt 0.699950 0.958492
vt 0.595860 0.897510
vt 0.707142 0.931860
vt 0.612618 0.879973
vt 0.714129 0.906867
vt 0.630133 0.861936
vt 0.130133 0.632729
vt 0.214129 0.587798
vt 0.207142 0.562805
vt 0.112618 0.614691
vt 0.199950 0.536173
vt 0.095860 0.597155
vt 0.192343 0.505765
vt 0.075614 0.575555
vt 0.820015 0.989404
vt 0.931153 0.922199
vt 0.908689 0.900093
vt 0.812343 0.961410
vt 0.888886 0.881019
vt 0.805844 0.937302
vt 0.870179 0.863324
vt 0.799404 0.913680
vt 0.299404 0.580985
vt 0.370179 0.631341
vt 0.388886 0.613645
vt 0.305844 0.557362
vt 0.408688 0.594572
vt 0.312343 0.533254
vt 0.431153 0.572466
vt 0.320015 0.505260
vt 0.989404 0.808069
vt 0.989404 0.680571
vt 0.959835 0.689082
vt 0.959855 0.800963
vt 0.933056 0.696919
vt 0.937709 0.795633
vt 0.908107 0.704392
vt 0.913756 0.789886
vt 0.413756 0.704778
vt 0.408107 0.790273
vt 0.433057 0.797746
vt 0.437709 0.699032
vt 0.459835 0.805582
vt 0.459855 0.693701
vt 0.489404 0.814093
vt 0.489404 0.686595
vt 0.923367 0.572385
vt 0.808465 0.505260
vt 0.801022 0.535499
vt 0.901698 0.594816
vt 0.793974 0.563727
vt 0.884646 0.612551
vt 0.787576 0.589280
vt 0.867418 0.630485
vt 0.367418 0.864180
vt 0.287577 0.905384
vt 0.293974 0.930938
vt 0.384646 0.882113
vt 0.301023 0.959165
vt 0.401698 0.899848
vt 0.308465 0.989404
vt 0.423367 0.922279
vt 0.272785 0.484069
vt 0.436984 0.484069
vt 0.436984 0.307429
vt 0.272785 0.307429
vt 0.048996 0.265531
vt 0.213194 0.265531
vt 0.213194 0.230629
vt 0.048996 0.230629
vt 0.216692 0.445669
vt 0.251594 0.445669
vt 0.251594 0.269029
vt 0.216692 0.269029
vt 0.052177 0.442487
vt 0.210012 0.442487
vt 0.210012 0.272211
vt 0.052178 0.272211
vt 0.048995 0.484069
vt 0.213194 0.484069
vt 0.213194 0.449167
vt 0.048995 0.449167
vt 0.045497 0.269029
vt 0.045498 0.445669
vt 0.010596 0.445669
vt 0.010596 0.269029
s 1
usemtl Material.003
f 1/1/1 2/2/1 3/3/1
f 1/1/1 3/3/1 4/4/1
f 5/4/2 6/3/2 7/5/2
f 5/4/2 7/5/2 8/6/2
f 9/6/3 10/5/3 11/7/4
f 9/6/3 11/7/4 12/8/3
f 13/9/5 14/10/5 15/11/6
f 13/9/5 15/11/6 16/12/5
f 17/12/7 18/11/7 19/13/7
f 17/12/7 19/13/7 20/14/7
f 21/14/8 22/13/9 23/15/8
f 21/14/8 23/15/8 24/16/8
f 25/17/10 26/18/10 27/19/11
f 25/17/10 27/19/11 28/20/10
f 29/20/12 30/19/12 31/21/12
f 29/20/12 31/21/12 32/22/12
f 33/22/13 34/21/14 35/23/14
f 33/22/13 35/23/14 36/24/15
f 37/25/16 38/26/16 39/27/16
f 37/25/16 39/27/16 40/28/16
f 41/28/17 42/27/17 43/29/17
f 41/28/17 43/29/17 44/30/18
f 45/30/19 46/29/20 47/31/20
f 45/30/19 47/31/20 48/32/21
f 49/33/22 50/34/22 51/35/22
f 49/33/22 51/35/22 52/36/23
f 53/36/24 54/35/24 55/37/24
f 53/36/24 55/37/24 56/38/24
f 57/38/25 58/37/25 59/39/25
f 57/38/25 59/39/25 60/40/25
f 61/41/26 62/42/27 63/43/27
f 61/41/26 63/43/27 64/44/27
f 65/44/28 66/43/28 67/45/28
f 65/44/28 67/45/28 68/46/28
f 69/46/29 70/45/30 71/47/30
f 69/46/29 71/47/30 72/48/30
f 73/49/31 74/50/31 75/51/32
f 73/49/31 75/51/32 76/52/32
f 77/52/33 78/51/33 79/53/33
f 77/52/33 79/53/33 80/54/33
f 81/54/34 82/53/34 83/55/35
f 81/54/34 83/55/35 84/56/34
f 85/57/36 86/58/36 87/59/36
f 85/57/36 87/59/36 88/60/36
f 89/60/37 90/59/37 91/61/37
f 89/60/37 91/61/37 92/62/37
f 93/62/38 94/61/39 95/63/39
f 93/62/38 95/63/39 96/64/39
f 97/65/40 98/66/40 99/67/41
f 97/65/40 99/67/41 100/68/41
f 101/68/42 102/67/42 103/69/42
f 101/68/42 103/69/42 104/70/42
f 105/70/43 106/69/43 107/71/43
f 105/70/43 107/71/43 108/72/43
f 109/73/44 110/74/44 111/75/44
f 109/73/44 111/75/44 112/76/44
f 113/76/45 114/75/46 115/77/46
f 113/76/45 115/77/46 116/78/45
f 117/78/47 118/77/47 119/79/47
f 117/78/47 119/79/47 120/80/48
f 121/81/49 122/82/49 123/83/49
f 121/81/49 123/83/49 124/84/49
f 125/84/50 126/83/50 127/85/50
f 125/84/50 127/85/50 128/86/50
f 129/86/51 130/85/51 131/87/52
f 129/86/51 131/87/52 132/88/52
f 133/89/53 134/90/54 135/91/53
f 133/89/53 135/91/53 136/92/54
f 137/92/55 138/91/55 139/93/55
f 137/92/55 139/93/55 140/94/55
f 141/94/56 142/93/56 143/95/56
f 141/94/56 143/95/56 144/96/56
f 145/29/57 146/46/57 147/48/57
f 145/29/57 147/48/57 148/31/57
f 149/27/58 150/44/58 151/46/58
f 149/27/58 151/46/58 152/29/58
f 153/26/59 154/41/59 155/44/60
f 153/26/59 155/44/60 156/27/60
f 157/21/61 158/38/62 159/40/62
f 157/21/61 159/40/62 160/23/61
f 161/19/63 162/36/63 163/38/63
f 161/19/63 163/38/63 164/21/63
f 165/18/64 166/33/64 167/36/64
f 165/18/64 167/36/64 168/19/64
f 169/13/65 170/30/65 171/32/65
f 169/13/65 171/32/65 172/15/66
f 173/11/67 174/28/67 175/30/67
f 173/11/67 175/30/67 176/13/67
f 177/10/68 178/25/69 179/28/70
f 177/10/68 179/28/70 180/11/68
f 181/5/71 182/22/71 183/24/71
f 181/5/71 183/24/71 184/7/72
f 185/3/73 186/20/73 187/22/74
f 185/3/73 187/22/74 188/5/73
f 189/2/75 190/17/76 191/20/77
f 189/2/75 191/20/77 192/3/75
f 193/77/78 194/94/78 195/96/79
f 193/77/78 195/96/79 196/79/78
f 197/75/80 198/92/80 199/94/80
f 197/75/80 199/94/80 200/77/80
f 201/74/81 202/89/81 203/92/81
f 201/74/81 203/92/81 204/75/81
f 205/69/82 206/86/82 207/88/82
f 205/69/82 207/88/82 208/71/82
f 209/67/83 210/84/83 211/86/83
f 209/67/83 211/86/83 212/69/83
f 213/66/84 214/81/85 215/84/86
f 213/66/84 215/84/86 216/67/86
f 217/61/87 218/78/87 219/80/88
f 217/61/87 219/80/88 220/63/88
f 221/59/89 222/76/89 223/78/89
f 221/59/89 223/78/89 224/61/90
f 225/58/91 226/73/91 227/76/91
f 225/58/91 227/76/91 228/59/91
f 229/53/92 230/70/92 231/72/92
f 229/53/92 231/72/92 232/55/92
f 233/51/93 234/68/94 235/70/94
f 233/51/93 235/70/94 236/53/93
f 237/50/95 238/65/96 239/68/96
f 237/50/95 239/68/96 240/51/95
f 241/45/97 242/62/97 243/64/97
f 241/45/97 243/64/97 244/47/97
f 245/43/98 246/60/98 247/62/98
f 245/43/98 247/62/98 248/45/98
f 249/42/99 250/57/99 251/60/99
f 249/42/99 251/60/99 252/43/99
f 253/37/100 254/54/100 255/56/100
f 253/37/100 255/56/100 256/39/100
f 257/35/101 258/52/102 259/54/101
f 257/35/101 259/54/101 260/37/102
f 261/34/103 262/49/103 263/52/103
f 261/34/103 263/52/103 264/35/103
f 265/93/104 266/14/105 267/16/105
f 265/93/104 267/16/105 268/95/104
f 269/91/106 270/12/106 271/14/106
f 269/91/106 271/14/106 272/93/106
f 273/90/107 274/9/108 275/12/107
f 273/90/107 275/12/107 276/91/107
f 277/85/109 278/6/110 279/8/110
f 277/85/109 279/8/110 280/87/109
f 281/83/111 282/4/111 283/6/111
f 281/83/111 283/6/111 284/85/111
f 285/82/112 286/1/112 287/4/112
f 285/82/112 287/4/112 288/83/112
f 289/97/113 290/98/113 291/99/113
f 289/97/113 291/99/113 292/100/113
f 293/101/114 294/102/114 295/103/114
f 293/101/114 295/103/114 296/104/114
f 297/105/115 298/106/115 299/107/115
f 297/105/115 299/107/115 300/108/115
f 301/109/116 302/110/116 303/111/116
f 301/109/116 303/111/116 304/112/116
f 305/113/117 306/114/117 307/115/117
f 305/113/117 307/115/117 308/116/117
f 309/110/118 310/109/119 311/116/119
f 309/110/118 311/116/119 312/115/118
f 313/117/120 314/118/120 315/109/120
f 313/117/120 315/109/120 316/112/120
f 317/105/121 318/108/121 319/111/121
f 317/105/121 319/111/121 320/110/121
f 321/102/122 322/101/123 323/112/123
f 321/102/122 323/112/123 324/111/122
f 325/119/124 326/118/124 327/117/124
f 325/119/124 327/117/124 328/120/124
