# Blender 5.1.0
# www.blender.org
mtllib door_frame.mtl
o Object_8
v 0.000000 -3.441547 -2.066134
v -0.000000 2.626729 -2.021899
v 0.214262 2.632499 -2.044161
v 0.214262 -3.435013 -2.066278
v 0.214262 -3.435013 -2.066278
v 0.214262 2.632499 -2.044161
v 0.214262 2.453544 -1.732497
v 0.214262 -3.012758 -1.710379
v 0.214262 -3.012758 -1.710379
v 0.214262 2.453544 -1.732497
v -0.000000 2.467850 -1.725963
v 0.000000 -3.017283 -1.703844
v -0.000000 3.634350 1.392870
v -0.000000 2.627976 2.137619
v 0.214262 2.621442 2.136637
v 0.214262 3.627815 1.395585
v 0.214262 3.627815 1.395585
v 0.214262 2.621442 2.136637
v 0.214262 2.442487 1.769678
v 0.214262 3.282975 1.157715
v 0.214262 3.282975 1.157715
v 0.214262 2.442487 1.769678
v -0.000000 2.460753 1.734634
v -0.000000 3.316444 1.138311
v -0.000000 2.627976 2.137619
v 0.000000 -3.441547 2.104442
v 0.214262 -3.435012 2.092400
v 0.214262 2.621442 2.136637
v 0.214262 2.621442 2.136637
v 0.214262 -3.435012 2.092400
v 0.214262 -3.012758 1.769678
v 0.214262 2.442487 1.769678
v 0.214262 2.442487 1.769678
v 0.214262 -3.012758 1.769678
v 0.000000 -3.017282 1.752084
v -0.000000 2.460753 1.734634
v 0.000000 -3.441547 2.104442
v 0.000000 -3.441547 -2.066134
v 0.214262 -3.435013 -2.066278
v 0.214262 -3.435012 2.092400
v 0.214262 -3.435012 2.092400
v 0.214262 -3.435013 -2.066278
v 0.214262 -3.012758 -1.710379
v 0.214262 -3.012758 1.769678
v 0.214262 -3.012758 1.769678
v 0.214262 -3.012758 -1.710379
v 0.000000 -3.017283 -1.703844
v 0.000000 -3.017282 1.752084
v 0.214262 2.453544 -1.732497
v 0.214262 3.338270 -1.021003
v -0.000000 3.341898 -1.023718
v -0.000000 2.467850 -1.725963
v 0.214262 3.338270 -1.021003
v 0.214262 3.716272 -0.420100
v -0.000000 3.739673 -0.398887
v -0.000000 3.341898 -1.023718
v 0.214262 3.760508 0.024120
v 0.214262 3.694154 0.468339
v -0.000000 3.705744 0.447126
v -0.000000 3.761973 0.024120
v 0.214262 3.694154 0.468339
v 0.214262 3.282975 1.157715
v -0.000000 3.316444 1.138311
v -0.000000 3.705744 0.447126
v 0.214262 2.632499 -2.044161
v 0.214262 3.660992 -1.258873
v 0.214262 3.338270 -1.021003
v 0.214262 2.453544 -1.732497
v 0.214262 3.660992 -1.258873
v 0.214262 4.125473 -0.462526
v 0.214262 3.716272 -0.420100
v 0.214262 3.338270 -1.021003
v 0.214262 4.158650 0.024120
v 0.214262 4.103355 0.510766
v 0.214262 3.694154 0.468339
v 0.214262 3.760508 0.024120
v 0.214262 4.103355 0.510766
v 0.214262 3.627815 1.395585
v 0.214262 3.282975 1.157715
v 0.214262 3.694154 0.468339
v -0.000000 2.626729 -2.021899
v -0.000000 3.667526 -1.256158
v 0.214262 3.660992 -1.258873
v 0.214262 2.632499 -2.044161
v -0.000000 3.667526 -1.256158
v -0.000000 4.132007 -0.483739
v 0.214262 4.125473 -0.462526
v 0.214262 3.660992 -1.258873
v -0.000000 4.165184 0.024120
v -0.000000 4.109890 0.531979
v 0.214262 4.103355 0.510766
v 0.214262 4.158650 0.024120
v -0.000000 4.109890 0.531979
v -0.000000 3.634350 1.392870
v 0.214262 3.627815 1.395585
v 0.214262 4.103355 0.510766
v -0.000000 4.132007 -0.483739
v -0.000000 4.165184 0.024120
v 0.214262 4.158650 0.024120
v 0.214262 4.125473 -0.462526
v 0.214262 4.125473 -0.462526
v 0.214262 4.158650 0.024120
v 0.214262 3.760508 0.024120
v 0.214262 3.716272 -0.420100
v 0.214262 3.716272 -0.420100
v 0.214262 3.760508 0.024120
v -0.000000 3.761973 0.024120
v -0.000000 3.739673 -0.398887
v 0.000000 -3.441547 -2.066134
v -0.214262 -3.435013 -2.066278
v -0.214262 2.632499 -2.044161
v -0.000000 2.626729 -2.021899
v -0.214262 -3.435013 -2.066278
v -0.214262 -3.012758 -1.710379
v -0.214262 2.453544 -1.732497
v -0.214262 2.632499 -2.044161
v -0.214262 -3.012758 -1.710379
v 0.000000 -3.017283 -1.703844
v -0.000000 2.467850 -1.725963
v -0.214262 2.453544 -1.732497
v -0.000000 3.634350 1.392870
v -0.214262 3.627815 1.395585
v -0.214262 2.621442 2.136637
v -0.000000 2.627976 2.137619
v -0.214262 3.627815 1.395585
v -0.214262 3.282975 1.157715
v -0.214262 2.442487 1.769678
v -0.214262 2.621442 2.136637
v -0.214262 3.282975 1.157715
v -0.000000 3.316444 1.138311
v -0.000000 2.460753 1.734634
v -0.214262 2.442487 1.769678
v -0.000000 2.627976 2.137619
v -0.214262 2.621442 2.136637
v -0.214262 -3.435012 2.092400
v 0.000000 -3.441547 2.104442
v -0.214262 2.621442 2.136637
v -0.214262 2.442487 1.769678
v -0.214262 -3.012758 1.769678
v -0.214262 -3.435012 2.092400
v -0.214262 2.442487 1.769678
v -0.000000 2.460753 1.734634
v 0.000000 -3.017282 1.752084
v -0.214262 -3.012758 1.769678
v 0.000000 -3.441547 2.104442
v -0.214262 -3.435012 2.092400
v -0.214262 -3.435013 -2.066278
v 0.000000 -3.441547 -2.066134
v -0.214262 -3.435012 2.092400
v -0.214262 -3.012758 1.769678
v -0.214262 -3.012758 -1.710379
v -0.214262 -3.435013 -2.066278
v -0.214262 -3.012758 1.769678
v 0.000000 -3.017282 1.752084
v 0.000000 -3.017283 -1.703844
v -0.214262 -3.012758 -1.710379
v -0.214262 2.453544 -1.732497
v -0.000000 2.467850 -1.725963
v -0.000000 3.341898 -1.023718
v -0.214262 3.338270 -1.021003
v -0.214262 3.338270 -1.021003
v -0.000000 3.341898 -1.023718
v -0.000000 3.739673 -0.398887
v -0.214262 3.716272 -0.420100
v -0.214262 3.760508 0.024120
v -0.000000 3.761973 0.024120
v -0.000000 3.705744 0.447126
v -0.214262 3.694154 0.468339
v -0.214262 3.694154 0.468339
v -0.000000 3.705744 0.447126
v -0.000000 3.316444 1.138311
v -0.214262 3.282975 1.157715
v -0.214262 2.632499 -2.044161
v -0.214262 2.453544 -1.732497
v -0.214262 3.338270 -1.021003
v -0.214262 3.660992 -1.258873
v -0.214262 3.660992 -1.258873
v -0.214262 3.338270 -1.021003
v -0.214262 3.716272 -0.420100
v -0.214262 4.125473 -0.462526
v -0.214262 4.158650 0.024120
v -0.214262 3.760508 0.024120
v -0.214262 3.694154 0.468339
v -0.214262 4.103355 0.510766
v -0.214262 4.103355 0.510766
v -0.214262 3.694154 0.468339
v -0.214262 3.282975 1.157715
v -0.214262 3.627815 1.395585
v -0.000000 2.626729 -2.021899
v -0.214262 2.632499 -2.044161
v -0.214262 3.660992 -1.258873
v -0.000000 3.667526 -1.256158
v -0.000000 3.667526 -1.256158
v -0.214262 3.660992 -1.258873
v -0.214262 4.125473 -0.462526
v -0.000000 4.132007 -0.483739
v -0.000000 4.165184 0.024120
v -0.214262 4.158650 0.024120
v -0.214262 4.103355 0.510766
v -0.000000 4.109890 0.531979
v -0.000000 4.109890 0.531979
v -0.214262 4.103355 0.510766
v -0.214262 3.627815 1.395585
v -0.000000 3.634350 1.392870
v -0.000000 4.132007 -0.483739
v -0.214262 4.125473 -0.462526
v -0.214262 4.158650 0.024120
v -0.000000 4.165184 0.024120
v -0.214262 4.125473 -0.462526
v -0.214262 3.716272 -0.420100
v -0.214262 3.760508 0.024120
v -0.214262 4.158650 0.024120
v -0.214262 3.716272 -0.420100
v -0.000000 3.739673 -0.398887
v -0.000000 3.761973 0.024120
v -0.214262 3.760508 0.024120
vn -0.0523 0.0055 -0.9986
vn -0.0524 0.0055 -0.9986
vn 1.0000 -0.0000 -0.0000
vn 0.0304 0.0040 0.9995
vn 0.0308 0.0040 0.9995
vn 0.0307 0.0040 0.9995
vn 0.0148 0.5938 0.8044
vn 0.0149 0.5938 0.8044
vn 0.0334 -0.5799 -0.8140
vn 0.0303 -0.0064 0.9995
vn 0.0304 -0.0064 0.9995
vn 0.1219 -0.0016 -0.9925
vn 0.0305 -0.9995 -0.0000
vn -0.0211 0.9998 -0.0000
vn -0.0192 -0.6264 0.7793
vn -0.0194 -0.6264 0.7793
vn -0.0193 -0.6264 0.7793
vn -0.0302 -0.8446 0.5345
vn -0.0302 -0.8446 0.5346
vn -0.0232 -0.9899 -0.1399
vn -0.0434 -0.8643 -0.5011
vn -0.0455 0.5991 -0.7993
vn 0.0482 0.8595 -0.5089
vn 0.0357 0.9932 0.1105
vn 0.0358 0.9932 0.1104
vn 0.0474 0.8771 0.4779
vn 0.0338 0.9972 -0.0666
vn 0.0337 0.9972 -0.0665
vn -0.0540 -0.9956 0.0764
vn 0.0523 0.0055 -0.9986
vn 0.0524 0.0055 -0.9986
vn -1.0000 -0.0000 -0.0000
vn -0.0304 0.0040 0.9995
vn -0.0307 0.0040 0.9995
vn -0.0308 0.0040 0.9995
vn -0.0148 0.5938 0.8044
vn -0.0149 0.5938 0.8044
vn -0.0334 -0.5799 -0.8140
vn -0.0303 -0.0064 0.9995
vn -0.0304 -0.0064 0.9995
vn -0.0304 -0.0063 0.9995
vn -0.1219 -0.0016 -0.9925
vn -0.0305 -0.9995 -0.0000
vn 0.0211 0.9998 -0.0000
vn 0.0192 -0.6264 0.7793
vn 0.0193 -0.6264 0.7793
vn 0.0194 -0.6264 0.7793
vn 0.0302 -0.8446 0.5345
vn 0.0302 -0.8446 0.5346
vn 0.0232 -0.9899 -0.1399
vn 0.0434 -0.8643 -0.5011
vn 0.0455 0.5991 -0.7993
vn 0.0455 0.5992 -0.7993
vn -0.0482 0.8595 -0.5089
vn -0.0357 0.9932 0.1105
vn -0.0358 0.9932 0.1104
vn -0.0474 0.8771 0.4779
vn -0.0338 0.9972 -0.0666
vn -0.0337 0.9972 -0.0665
vn 0.0540 -0.9956 0.0764
vt 0.653366 0.986309
vt 0.653366 0.228063
vt 0.626449 0.227357
vt 0.626594 0.985493
vt 0.536080 0.986309
vt 0.536080 0.228175
vt 0.497057 0.250393
vt 0.491805 0.933388
vt 0.816236 0.985741
vt 0.816236 0.302729
vt 0.789452 0.300945
vt 0.789452 0.986309
vt 0.567069 0.829963
vt 0.572285 0.986309
vt 0.599067 0.986000
vt 0.593855 0.829928
vt 0.106742 0.102247
vt 0.013691 0.227655
vt 0.059461 0.250182
vt 0.136307 0.145442
vt 0.872884 0.543693
vt 0.877984 0.413888
vt 0.850969 0.417252
vt 0.845943 0.547475
vt 0.707562 0.986309
vt 0.707562 0.227915
vt 0.680747 0.228722
vt 0.680790 0.985492
vt 0.016464 0.984417
vt 0.056980 0.931804
vt 0.734944 0.304139
vt 0.735208 0.985754
vt 0.762070 0.986309
vt 0.762070 0.301842
vt 0.932150 0.986309
vt 0.932150 0.465200
vt 0.905365 0.465182
vt 0.905366 0.984805
vt 0.986309 0.986309
vt 0.986309 0.551479
vt 0.959531 0.552295
vt 0.959532 0.984111
vt 0.877984 0.986309
vt 0.873004 0.844539
vt 0.846238 0.845339
vt 0.851157 0.985346
vt 0.870507 0.755872
vt 0.843618 0.752826
vt 0.870754 0.700093
vt 0.871232 0.643975
vt 0.844417 0.646582
vt 0.843982 0.699899
vt 0.438428 0.099309
vt 0.408559 0.139524
vt 0.339137 0.040911
vt 0.333650 0.092020
vt 0.278346 0.036544
vt 0.217515 0.043231
vt 0.222630 0.094380
vt 0.278165 0.086291
vt 0.572143 0.305766
vt 0.566701 0.467125
vt 0.593487 0.467169
vt 0.599068 0.305580
vt 0.563524 0.579699
vt 0.590311 0.582317
vt 0.563462 0.643291
vt 0.563735 0.707121
vt 0.590518 0.704460
vt 0.590246 0.643264
s 1
usemtl Material.002
f 1/1/1 2/2/2 3/3/2
f 1/1/1 3/3/2 4/4/2
f 5/5/3 6/6/3 7/7/3
f 5/5/3 7/7/3 8/8/3
f 9/9/4 10/10/5 11/11/6
f 9/9/4 11/11/6 12/12/4
f 13/13/7 14/14/7 15/15/8
f 13/13/7 15/15/8 16/16/8
f 17/17/3 18/18/3 19/19/3
f 17/17/3 19/19/3 20/20/3
f 21/21/9 22/22/9 23/23/9
f 21/21/9 23/23/9 24/24/9
f 25/25/10 26/26/11 27/27/11
f 25/25/10 27/27/11 28/28/11
f 29/18/3 30/29/3 31/30/3
f 29/18/3 31/30/3 32/19/3
f 33/31/12 34/32/12 35/33/12
f 33/31/12 35/33/12 36/34/12
f 37/35/13 38/36/13 39/37/13
f 37/35/13 39/37/13 40/38/13
f 41/29/3 42/5/3 43/8/3
f 41/29/3 43/8/3 44/30/3
f 45/39/14 46/40/14 47/41/14
f 45/39/14 47/41/14 48/42/14
f 49/43/15 50/44/16 51/45/17
f 49/43/15 51/45/17 52/46/15
f 53/44/18 54/47/18 55/48/19
f 53/44/18 55/48/19 56/45/19
f 57/49/20 58/50/20 59/51/20
f 57/49/20 59/51/20 60/52/20
f 61/50/21 62/21/21 63/24/21
f 61/50/21 63/24/21 64/51/21
f 65/6/3 66/53/3 67/54/3
f 65/6/3 67/54/3 68/7/3
f 69/53/3 70/55/3 71/56/3
f 69/53/3 71/56/3 72/54/3
f 73/57/3 74/58/3 75/59/3
f 73/57/3 75/59/3 76/60/3
f 77/58/3 78/17/3 79/20/3
f 77/58/3 79/20/3 80/59/3
f 81/61/22 82/62/22 83/63/22
f 81/61/22 83/63/22 84/64/22
f 85/62/23 86/65/23 87/66/23
f 85/62/23 87/66/23 88/63/23
f 89/67/24 90/68/25 91/69/25
f 89/67/24 91/69/25 92/70/25
f 93/68/26 94/13/26 95/16/26
f 93/68/26 95/16/26 96/69/26
f 97/65/27 98/67/28 99/70/28
f 97/65/27 99/70/28 100/66/28
f 101/55/3 102/57/3 103/60/3
f 101/55/3 103/60/3 104/56/3
f 105/47/29 106/49/29 107/52/29
f 105/47/29 107/52/29 108/48/29
f 109/1/30 110/4/31 111/3/31
f 109/1/30 111/3/31 112/2/31
f 113/5/32 114/8/32 115/7/32
f 113/5/32 115/7/32 116/6/32
f 117/9/33 118/12/33 119/11/34
f 117/9/33 119/11/34 120/10/35
f 121/13/36 122/16/37 123/15/37
f 121/13/36 123/15/37 124/14/37
f 125/17/32 126/20/32 127/19/32
f 125/17/32 127/19/32 128/18/32
f 129/21/38 130/24/38 131/23/38
f 129/21/38 131/23/38 132/22/38
f 133/25/39 134/28/40 135/27/41
f 133/25/39 135/27/41 136/26/40
f 137/18/32 138/19/32 139/30/32
f 137/18/32 139/30/32 140/29/32
f 141/31/42 142/34/42 143/33/42
f 141/31/42 143/33/42 144/32/42
f 145/35/43 146/38/43 147/37/43
f 145/35/43 147/37/43 148/36/43
f 149/29/32 150/30/32 151/8/32
f 149/29/32 151/8/32 152/5/32
f 153/39/44 154/42/44 155/41/44
f 153/39/44 155/41/44 156/40/44
f 157/43/45 158/46/45 159/45/46
f 157/43/45 159/45/46 160/44/47
f 161/44/48 162/45/49 163/48/49
f 161/44/48 163/48/49 164/47/48
f 165/49/50 166/52/50 167/51/50
f 165/49/50 167/51/50 168/50/50
f 169/50/51 170/51/51 171/24/51
f 169/50/51 171/24/51 172/21/51
f 173/6/32 174/7/32 175/54/32
f 173/6/32 175/54/32 176/53/32
f 177/53/32 178/54/32 179/56/32
f 177/53/32 179/56/32 180/55/32
f 181/57/32 182/60/32 183/59/32
f 181/57/32 183/59/32 184/58/32
f 185/58/32 186/59/32 187/20/32
f 185/58/32 187/20/32 188/17/32
f 189/61/52 190/64/53 191/63/52
f 189/61/52 191/63/52 192/62/52
f 193/62/54 194/63/54 195/66/54
f 193/62/54 195/66/54 196/65/54
f 197/67/55 198/70/56 199/69/56
f 197/67/55 199/69/56 200/68/56
f 201/68/57 202/69/57 203/16/57
f 201/68/57 203/16/57 204/13/57
f 205/65/58 206/66/59 207/70/59
f 205/65/58 207/70/59 208/67/59
f 209/55/32 210/56/32 211/60/32
f 209/55/32 211/60/32 212/57/32
f 213/47/60 214/48/60 215/52/60
f 213/47/60 215/52/60 216/49/60
