# Blender 5.1.0
# www.blender.org
mtllib window_screen.mtl
o Object_6
v 0.434232 1.613175 -0.000000
v 0.434232 2.821384 -0.000000
v -0.434232 1.613175 0.000000
v -0.434232 2.821384 -0.000000
v 0.434232 2.920754 -0.000000
v -0.434232 2.920754 -0.000000
v 0.000000 4.347044 -0.000000
v 0.307154 4.337351 -0.000000
v 0.153248 4.344469 -0.000000
v 0.434288 4.330108 -0.000000
v -0.307154 4.337351 -0.000000
v -0.153248 4.344469 -0.000000
v -0.434298 4.330108 -0.000000
v 0.434232 0.358903 -0.000000
v 0.434232 1.511954 -0.000000
v -0.434232 0.358903 0.000000
v -0.434232 1.511954 0.000000
v 3.281571 1.613175 -0.000005
v 3.281571 2.821384 -0.000005
v 2.634776 1.613175 -0.000004
v 2.634776 2.821384 -0.000004
v 2.540566 1.613175 -0.000001
v 2.540566 2.821384 -0.000001
v 1.888844 1.613175 -0.000001
v 1.888844 2.821384 -0.000001
v 1.444473 1.613175 -0.000004
v 1.444473 2.821384 -0.000004
v 0.527587 1.613175 -0.000004
v 0.527587 2.821384 -0.000004
v 3.281568 2.923007 -0.000005
v 2.634772 2.923007 -0.000005
v 2.540434 2.922072 -0.000001
v 1.888712 2.922072 -0.000001
v 1.444435 2.920878 -0.000004
v 0.527549 2.920878 -0.000004
v 1.888673 4.040898 -0.000001
v 3.103605 3.429369 -0.000001
v 2.827037 3.615425 -0.000001
v 2.527831 3.779864 -0.000001
v 2.210230 3.922664 -0.000001
v 1.444502 4.172888 -0.000001
v 1.239531 4.219901 -0.000001
v 0.922493 4.278389 -0.000001
v 0.611441 4.315466 -0.000000
v 3.225086 3.336250 -0.000001
v 2.966383 3.525770 -0.000001
v 2.677454 3.701335 -0.000001
v 2.370212 3.854797 -0.000001
v 2.048658 3.986193 -0.000001
v 1.401943 4.183610 -0.000001
v 1.081307 4.251378 -0.000001
v 0.767610 4.299088 -0.000001
v 0.527466 4.322696 -0.000000
v 3.281629 3.290100 -0.000001
v 2.634645 3.723697 -0.000001
v 2.540475 3.773259 -0.000001
v 3.281571 0.358903 -0.000004
v 3.281571 1.511954 -0.000005
v 2.634776 0.358903 -0.000004
v 2.634776 1.511954 -0.000004
v 2.540566 0.358903 -0.000001
v 2.540566 1.511954 -0.000001
v 1.888844 0.358903 -0.000001
v 1.888844 1.511954 -0.000001
v 1.444473 0.358903 -0.000004
v 1.444473 1.511954 -0.000004
v 0.527587 0.358903 -0.000004
v 0.527587 1.511954 -0.000004
v -3.281571 1.613175 -0.000005
v -3.281571 2.821384 -0.000005
v -2.634776 1.613175 -0.000005
v -2.634776 2.821384 -0.000005
v -2.540566 1.613175 -0.000001
v -2.540566 2.821384 -0.000001
v -1.888844 1.613175 -0.000001
v -1.888844 2.821384 -0.000001
v -1.444473 1.613175 -0.000004
v -1.444473 2.821384 -0.000004
v -0.527587 1.613175 -0.000004
v -0.527587 2.821384 -0.000004
v -3.281568 2.923007 -0.000005
v -2.634772 2.923007 -0.000005
v -2.540434 2.922072 -0.000001
v -1.888712 2.922072 -0.000001
v -1.444435 2.920878 -0.000004
v -0.527549 2.920878 -0.000004
v -1.888673 4.040898 -0.000001
v -3.103605 3.429369 -0.000001
v -2.827037 3.615425 -0.000001
v -2.527831 3.779864 -0.000001
v -2.210230 3.922664 -0.000001
v -1.444502 4.172888 -0.000001
v -1.239531 4.219901 -0.000001
v -0.922493 4.278389 -0.000001
v -0.611441 4.315466 -0.000001
v -3.225086 3.336250 -0.000001
v -2.966383 3.525770 -0.000001
v -2.677454 3.701335 -0.000001
v -2.370212 3.854797 -0.000001
v -2.048658 3.986193 -0.000001
v -1.401943 4.183610 -0.000001
v -1.081307 4.251378 -0.000001
v -0.767610 4.299088 -0.000001
v -0.527466 4.322696 -0.000001
v -3.281629 3.290100 -0.000001
v -2.634645 3.723697 -0.000001
v -2.540475 3.773259 -0.000001
v -3.281571 0.358903 -0.000005
v -3.281571 1.511954 -0.000005
v -2.634776 0.358903 -0.000005
v -2.634776 1.511954 -0.000005
v -2.540566 0.358903 -0.000001
v -2.540566 1.511954 -0.000001
v -1.888844 0.358903 -0.000001
v -1.888844 1.511954 -0.000001
v -1.444473 0.358903 -0.000004
v -1.444473 1.511954 -0.000004
v -0.527587 0.358903 -0.000004
v -0.527587 1.511954 -0.000004
vn -0.0000 -0.0000 1.0000
vt 0.271273 0.613998
vt 0.271273 0.298104
vt 0.044208 0.298104
vt 0.044208 0.613998
vt 0.926463 0.992887
vt 0.926463 0.691415
vt 0.699397 0.691415
vt 0.699397 0.992887
vt 0.692133 0.671017
vt 0.692133 0.355123
vt 0.523024 0.355123
vt 0.523024 0.671017
vt 0.693421 0.992887
vt 0.693421 0.676993
vt 0.523024 0.676993
vt 0.523024 0.992887
vt 0.517007 0.620397
vt 0.517007 0.304503
vt 0.277281 0.304503
vt 0.277281 0.620397
vt 0.692133 0.349147
vt 0.692133 0.047674
vt 0.523024 0.047674
vt 0.523024 0.349147
vt 0.868506 0.363569
vt 0.868507 0.062096
vt 0.698109 0.062096
vt 0.698109 0.363569
vt 0.937835 0.671017
vt 0.937835 0.369544
vt 0.698109 0.369544
vt 0.698109 0.671017
vt 0.271305 0.624403
vt 0.044225 0.992887
vt 0.271291 0.992887
vt 0.044208 0.624403
vt 0.077450 0.622509
vt 0.238065 0.622509
vt 0.197825 0.620648
vt 0.117690 0.620648
vt 0.157758 0.619974
vt 0.517048 0.665528
vt 0.277323 0.992887
vt 0.517048 0.992875
vt 0.277281 0.626373
vt 0.505921 0.662725
vt 0.463457 0.653239
vt 0.422088 0.645012
vt 0.380564 0.637952
vt 0.340069 0.632542
vt 0.299237 0.628262
vt 0.447703 0.075970
vt 0.277306 0.298527
vt 0.447703 0.298518
vt 0.277281 0.006002
vt 0.444397 0.074243
vt 0.403185 0.054653
vt 0.361356 0.036911
vt 0.319111 0.020303
vt 0.213385 0.196121
vt 0.044276 0.292128
vt 0.213385 0.292100
vt 0.044208 0.082782
vt 0.198599 0.184058
vt 0.166833 0.159716
vt 0.130951 0.134518
vt 0.094514 0.111083
vt 0.055401 0.088627
s 1
usemtl Material.002
f 1/1/1 2/2/1 4/3/1
f 1/1/1 4/3/1 3/4/1
f 14/5/1 15/6/1 17/7/1
f 14/5/1 17/7/1 16/8/1
f 18/9/1 19/10/1 21/11/1
f 18/9/1 21/11/1 20/12/1
f 22/13/1 23/14/1 25/15/1
f 22/13/1 25/15/1 24/16/1
f 26/17/1 27/18/1 29/19/1
f 26/17/1 29/19/1 28/20/1
f 57/21/1 58/22/1 60/23/1
f 57/21/1 60/23/1 59/24/1
f 61/25/1 62/26/1 64/27/1
f 61/25/1 64/27/1 63/28/1
f 65/29/1 66/30/1 68/31/1
f 65/29/1 68/31/1 67/32/1
f 69/9/1 71/12/1 72/11/1
f 69/9/1 72/11/1 70/10/1
f 73/13/1 75/16/1 76/15/1
f 73/13/1 76/15/1 74/14/1
f 77/17/1 79/20/1 80/19/1
f 77/17/1 80/19/1 78/18/1
f 108/21/1 110/24/1 111/23/1
f 108/21/1 111/23/1 109/22/1
f 112/25/1 114/28/1 115/27/1
f 112/25/1 115/27/1 113/26/1
f 116/29/1 118/32/1 119/31/1
f 116/29/1 119/31/1 117/30/1
f 10/33/1 6/34/1 5/35/1
f 6/34/1 10/33/1 13/36/1
f 13/36/1 10/33/1 11/37/1
f 11/37/1 10/33/1 8/38/1
f 11/37/1 8/38/1 9/39/1
f 11/37/1 9/39/1 12/40/1
f 12/40/1 9/39/1 7/41/1
f 41/42/1 35/43/1 34/44/1
f 35/43/1 41/42/1 53/45/1
f 53/45/1 41/42/1 50/46/1
f 53/45/1 50/46/1 42/47/1
f 53/45/1 42/47/1 51/48/1
f 53/45/1 51/48/1 43/49/1
f 53/45/1 43/49/1 52/50/1
f 53/45/1 52/50/1 44/51/1
f 56/52/1 33/53/1 32/54/1
f 33/53/1 56/52/1 36/55/1
f 36/55/1 56/52/1 39/56/1
f 36/55/1 39/56/1 48/57/1
f 36/55/1 48/57/1 40/58/1
f 36/55/1 40/58/1 49/59/1
f 54/60/1 31/61/1 30/62/1
f 31/61/1 54/60/1 55/63/1
f 55/63/1 54/60/1 45/64/1
f 55/63/1 45/64/1 37/65/1
f 55/63/1 37/65/1 46/66/1
f 55/63/1 46/66/1 38/67/1
f 55/63/1 38/67/1 47/68/1
f 104/45/1 85/44/1 86/43/1
f 85/44/1 104/45/1 92/42/1
f 92/42/1 104/45/1 101/46/1
f 101/46/1 104/45/1 93/47/1
f 93/47/1 104/45/1 102/48/1
f 102/48/1 104/45/1 94/49/1
f 94/49/1 104/45/1 103/50/1
f 103/50/1 104/45/1 95/51/1
f 87/55/1 83/54/1 84/53/1
f 83/54/1 87/55/1 107/52/1
f 107/52/1 87/55/1 90/56/1
f 90/56/1 87/55/1 99/57/1
f 99/57/1 87/55/1 91/58/1
f 91/58/1 87/55/1 100/59/1
f 106/63/1 81/62/1 82/61/1
f 81/62/1 106/63/1 105/60/1
f 105/60/1 106/63/1 96/64/1
f 96/64/1 106/63/1 88/65/1
f 88/65/1 106/63/1 97/66/1
f 97/66/1 106/63/1 89/67/1
f 89/67/1 106/63/1 98/68/1
